<svg xmlns="http://www.w3.org/2000/svg" width="247.231" height="238.393" viewBox="0 0 247.231 238.393"><defs><style>.a{fill:#c5a26d;}.b{fill:#f2f2f2;}.c{fill:#212121;}.d{fill:#fbbebe;}.e{fill:#cfaa72;}.f{fill:#00331e;}.g{opacity:0.1;}.h{fill:#2f2e41;}.i{fill:#6c63ff;}.j{fill:#3f3d56;}.k{fill:#0db473;}.l{fill:#ffecd2;}</style></defs><g transform="translate(0 0)"><path class="a" d="M467.178,297.126s3.948,10.629,3.644,11.54,12.451-7.592,12.451-7.592-5.466-1.215-5.466-6.074Z" transform="translate(-383.898 -222.874)"/><path class="b" d="M427.032,619.278l-69.609.231c-18.467-5.549-33.6-24.822-33.693-53.718a81.821,81.821,0,0,1,.983-13l56.067-12.6,43.252-9.716a86.024,86.024,0,0,1,8.885,9.238l-41.359,21.839-19.511,10.3,21.924-7.564,45.505-15.7a110.341,110.341,0,0,1,7.567,13.566l-13.73,14.19,15.532-10.168q.1.234.2.468C458.887,590.018,446.674,619.213,427.032,619.278Z" transform="translate(-284.013 -386.84)"/><path class="b" d="M418.548,484.628c-10.527,3.023-23.468,6.843-36.775,10.813-19.239,5.742-39.239,11.8-53.8,16.231l.01-.052a20.012,20.012,0,0,1,3.693-8.571c10.786-14.024,24.52-23.821,39.806-27.459h0a57.369,57.369,0,0,1,13.12-1.565A60.521,60.521,0,0,1,418.548,484.628Z" transform="translate(-286.969 -347.532)"/><ellipse class="c" cx="47.375" cy="6.833" rx="47.375" ry="6.833" transform="translate(39.093 224.728)"/><path class="d" d="M229.229,549.018v10.629l7.592.911,4.555-5.77-3.644-7.288Z" transform="translate(-159.615 -381.232)"/><path class="d" d="M324.229,695.107l3.948,10.629,7.288-2.43L330,694.5Z" transform="translate(-225.765 -483.59)"/><path class="c" d="M399.38,454.408s-39.479-3.948-38.264,6.985,18.525,42.212,18.525,42.212l11.54-2.126s-8.2-12.755-7.592-17.006-1.822-10.022-1.822-10.022l5.77.911,3.341,5.163,6.985,35.835,10.629,32.191,7.9-2.126s-4.252-13.362-3.037-17.614-5.77-20.651-5.77-20.651l4.859-28.546s9.414-2.733,6.681-12.147S399.38,454.408,399.38,454.408Z" transform="translate(-310.026 -333.389)"/><path class="c" d="M402.512,621.826s-4.555-3.644-4.252-2.126a10.9,10.9,0,0,1,0,3.341l-4.252,9.414s-10.325,9.414-.911,9.718,14.273-9.414,14.273-9.414,13.059-9.718,11.54-11.236-9.488-5.006-9.488-5.006S406.763,623.952,402.512,621.826Z" transform="translate(-329.558 -446.751)"/><path class="c" d="M492.55,767.024s-4.252-3.948-4.555-2.126-.607,4.252-.607,4.252l-6.377,6.074s-9.111,8.807-1.215,9.111a15.267,15.267,0,0,0,12.147-5.163s11.54-2.43,10.933-4.252-3.653-8.871-5.015-9.143S496.194,769.454,492.55,767.024Z" transform="translate(-390.442 -549.737)"/><circle class="e" cx="9.414" cy="9.414" r="9.414" transform="translate(78.117 58.46)"/><path class="e" d="M563.074,353s5.466,5.466,6.377,7.288,21.562,24.9,21.562,24.9,13.666,16.1,8.2,16.4-12.451-12.755-12.451-12.755-19.436-14.273-20.347-17.614l-11.236-11.54Z" transform="translate(-445.174 -263.261)"/><path class="f" d="M463.482,319.02h-3.341l-4.555,7.288s-4.555,3.948-1.215,12.147a180.975,180.975,0,0,1,6.074,18.525s9.718,1.215,11.54,4.252,12.147,12.755,12.147,12.755a51.032,51.032,0,0,0,1.215-15.792c-.607-9.414,0-23.687,0-23.687l-.607-18.829s-11.729-2.719-12.546-2.27S463.482,319.02,463.482,319.02Z" transform="translate(-374.129 -235.658)"/><path class="f" d="M542.178,321.911l4.555-.911s4.859,3.037,9.414,11.844c0,0-9.718,6.377-10.629,6.074S542.178,321.911,542.178,321.911Z" transform="translate(-436.122 -240.979)"/><path class="e" d="M438.114,389.215s-6.985,11.236-4.859,15.488,4.859,3.948,4.859,3.948,5.163-.911,5.163-5.163,2.126-4.555,2.126-4.555S458.764,388,453.6,388s-12.147,7.592-12.147,7.592l-.3-6.985Z" transform="translate(-359.997 -287.632)"/><path class="f" d="M451.14,355a7.992,7.992,0,0,0-5.466,6.074,26.519,26.519,0,0,0-.607,7.288l6.074-.607Z" transform="translate(-368.468 -264.653)"/><path class="g" d="M437.178,422.262s4.859-6.377,5.466-5.466Z" transform="translate(-363.009 -307.621)"/><path class="h" d="M459.357,237.06s-4.993-4.988-9.8-1.639-7.045,6.539-6.508,8.706a31.649,31.649,0,0,0,2.035,5.16s-1-4.491,3.041-4.931,9.566-3.266,9.566-3.266l4,7.983s.486-1.887,1.983-1.388S463.739,237.545,459.357,237.06Z" transform="translate(-367.043 -180.583)"/><path class="i" d="M357.468,770.325c0,4.428-2.632,5.974-5.88,5.974l-.225,0c-.15,0-.3-.01-.447-.02-2.931-.207-5.208-1.833-5.208-5.951,0-4.262,5.446-9.639,5.855-10.037h0l.024-.023S357.468,765.9,357.468,770.325Z" transform="translate(-299.318 -546.844)"/><path class="j" d="M358.947,775.623l2.15-3-2.156,3.335-.006.345c-.15,0-.3-.01-.447-.02l.232-4.43,0-.034,0-.006.022-.418-2.161-3.343,2.168,3.029.005.089.175-3.347-1.85-3.454,1.873,2.867.182-6.94v0l-.03,5.472,1.842-2.169-1.85,2.641-.049,3,1.72-2.876-1.727,3.317-.027,1.666,2.5-4-2.506,4.584Z" transform="translate(-306.89 -546.845)"/><path class="k" d="M669.83,277.166s-1.868,5.81-4.784,14.157c-.943,2.711-2,5.688-3.137,8.821-1.586,4.363-3.333,9.029-5.162,13.7-1.125,2.872-2.281,5.74-3.45,8.543-6.283,15.021-12.975,28.035-17.359,28.218-9.85.408-30.951-65.5-33.254-72.782-.135-.426-.2-.652-.2-.652Z" transform="translate(-478.111 -210.456)"/><path class="g" d="M741.481,291.322c-.943,2.711-2,5.688-3.137,8.821l-26.093-22.977H725.4Z" transform="translate(-554.546 -210.456)"/><path class="g" d="M656.747,313.839c-1.125,2.872-2.281,5.74-3.45,8.543l-50.613-44.564c-.135-.426-.2-.652-.2-.652H615.1Z" transform="translate(-478.111 -210.456)"/><path class="l" d="M687.043,65.837c-3.088,2.446-7.97,1.521-10.937,4.111-2.03,1.772-2.571,4.8-2.017,7.438a21.648,21.648,0,0,0,3.506,7.227,18.614,18.614,0,0,0,3.518,4.3,17.472,17.472,0,0,0,7.109,3.039,88.536,88.536,0,0,0,16.77,2.431c2.522.121,5.378,0,7.077-1.867a8.231,8.231,0,0,0,1.677-4.019c.453-2.254.706-4.682-.232-6.782a11.459,11.459,0,0,0-3.754-4.169c-4.708-3.6-10.254-6.586-13.128-11.772-1.142-2.061-1.847-4.45-3.578-6.049-2.257-2.085-7.278-2.937-9.935-1.544C683.529,59.118,688.893,64.37,687.043,65.837Z" transform="translate(-527.831 -57.5)"/><path class="l" d="M628.822,136.393c-.915,3.174-1.759,6.533-.988,9.746,1.016,4.236,4.73,7.408,8.8,8.95s8.517,1.722,12.869,1.885l22.791.851a27.52,27.52,0,0,1,8.475,1.209c2.219.812,4.856,2.148,6.705.678a5.255,5.255,0,0,0,1.513-2.775c.969-3.349,1.51-7.027.208-10.261-1.493-3.706-5.174-6.141-9-7.3s-7.869-1.277-11.84-1.717a71.369,71.369,0,0,1-11.905-2.357c-3.256-.938-6.554-2.176-8.962-4.56-1.3-1.289-2.289-2.861-3.517-4.222C636.946,118.721,630.552,130.395,628.822,136.393Z" transform="translate(-495.555 -103.749)"/><path class="l" d="M596.167,204.351a14.1,14.1,0,0,0-2.942,23.968c3.47,2.723,8.012,3.671,12.411,3.988a106.475,106.475,0,0,0,12.914-.116l38.066-1.885c2.231-.111,4.757-.367,6.119-2.138a6.327,6.327,0,0,0,.834-4.794,16.431,16.431,0,0,0-11.076-12.986,32.167,32.167,0,0,0-6.682-1.1l-16.318-1.527a38.5,38.5,0,0,1-6.538-.992c-6.453-1.754-12.219-6.875-18.863-6.117-4.507.514-8.218,3.67-11.493,6.81" transform="translate(-467.909 -157.123)"/><path class="g" d="M685.467,128.361s5.326,9.616,32.645,13.5" transform="translate(-535.896 -106.841)"/><path class="g" d="M635.707,211.293s9.9,10.011,50.742,10.011" transform="translate(-501.248 -164.588)"/><ellipse class="j" cx="2.607" cy="0.869" rx="2.607" ry="0.869" transform="translate(154.785 15.002)"/><ellipse class="j" cx="2.607" cy="0.869" rx="2.607" ry="0.869" transform="translate(163.475 20.651)"/><ellipse class="j" cx="2.607" cy="0.869" rx="2.607" ry="0.869" transform="translate(173.469 26.734)"/><ellipse class="j" cx="2.607" cy="0.869" rx="2.607" ry="0.869" transform="translate(138.708 29.341)"/><ellipse class="j" cx="2.607" cy="0.869" rx="2.607" ry="0.869" transform="translate(160.868 37.597)"/><ellipse class="j" cx="2.607" cy="0.869" rx="2.607" ry="0.869" transform="translate(129.583 54.543)"/><ellipse class="j" cx="2.607" cy="0.869" rx="2.607" ry="0.869" transform="translate(146.095 38.466)"/><ellipse class="j" cx="2.607" cy="0.869" rx="2.607" ry="0.869" transform="translate(136.101 61.061)"/><ellipse class="j" cx="2.607" cy="0.869" rx="2.607" ry="0.869" transform="translate(153.047 57.15)"/><ellipse class="i" cx="2.824" cy="5.866" rx="2.824" ry="5.866" transform="translate(163.041 68.013)"/><ellipse class="i" cx="2.824" cy="5.866" rx="2.824" ry="5.866" transform="translate(166.517 70.186)"/><path class="j" d="M731.486,379.2c.023-.116.609-2.89,3.673-6.937,2.811-3.713,8.341-9.238,18.719-14.473a47.07,47.07,0,0,0,24.1-28.738l.525.119a41.343,41.343,0,0,1-4.653,10.755,48.207,48.207,0,0,1-19.734,18.346c-19.629,9.9-22.085,20.927-22.107,21.037Z" transform="translate(-567.94 -246.583)"/><circle class="i" cx="3.5" cy="3.5" r="3.5" transform="translate(207.549 73.472)"/><circle class="j" cx="3.5" cy="3.5" r="3.5" transform="translate(206.856 90.453)"/><circle class="i" cx="3.5" cy="3.5" r="3.5" transform="translate(195.471 91.645)"/><circle class="i" cx="3.5" cy="3.5" r="3.5" transform="translate(197.24 103.199)"/><circle class="j" cx="3.5" cy="3.5" r="3.5" transform="translate(180.866 103.436)"/><path class="j" d="M736.3,483.83s3.291-8.7,15.384-6.3Z" transform="translate(-571.294 -349.684)"/><path class="j" d="M717.015,452.239s5.061-7.8-4.032-16.126Z" transform="translate(-555.056 -321.134)"/><path class="b" d="M779.588,417.1l-5.794-2.286L768,412.524l4.877-3.874,4.877-3.875.917,6.161Z" transform="translate(-534.769 -281.85)"/><path class="b" d="M11.588,287.1,5.794,284.81,0,282.524l4.877-3.874,4.877-3.875.917,6.161Z" transform="translate(0 -191.33)"/><path class="b" d="M684.588,528.1l-5.794-2.286L673,523.524l4.877-3.874,4.877-3.875.917,6.161Z" transform="translate(-468.619 -359.141)"/><path class="b" d="M789.009,612.2l-5.472,2.975-5.472,2.976.159-6.227.159-6.227,5.313,3.251Z" transform="translate(-541.778 -421.752)"/><path class="b" d="M110.009,220.2l-5.472,2.975-5.472,2.976.159-6.226.159-6.227,5.313,3.251Z" transform="translate(-68.98 -148.797)"/></g></svg>