<svg xmlns="http://www.w3.org/2000/svg" width="199.877" height="56.593" viewBox="0 0 199.877 56.593"><defs><style>.a{fill:#212121;}</style></defs><g transform="translate(-102.179 -384.524)"><path class="a" d="M-80.534-2.438a.5.5,0,0,1,.311.219.452.452,0,0,1,.069.368.415.415,0,0,1-.23.288Q-83.651.483-86.112,2.392a5.742,5.742,0,0,1,.966,3.4q-.207,2.921-4.37,5.773a3.676,3.676,0,0,1-2.047.713,2.028,2.028,0,0,1-.92-.207,1.732,1.732,0,0,1-.966-1.61q-.092-2.07,2.645-5.106a29.074,29.074,0,0,1,3.4-3.174A20.338,20.338,0,0,0-88.826.518q-.874-.932-1.541-1.553t-1.955-1.794q-.552-.483-.828-.736-3.749-3.427-4.485-6.693A8.424,8.424,0,0,1-95.91-17.2a9.768,9.768,0,0,1,3.542-3.1,5.183,5.183,0,0,1,3.749-.506,3.752,3.752,0,0,1,.747.31,4.267,4.267,0,0,1,.805.609,4.4,4.4,0,0,1,.782.966,5.94,5.94,0,0,1,.587,1.461,9.843,9.843,0,0,1,.322,2.035.432.432,0,0,1-.115.356.478.478,0,0,1-.333.161.452.452,0,0,1-.345-.127.535.535,0,0,1-.173-.345,6.974,6.974,0,0,0-.771-3,2.955,2.955,0,0,0-1.783-1.483,4.2,4.2,0,0,0-3.162.494,8.929,8.929,0,0,0-3.071,2.748,7.47,7.47,0,0,0-1.564,6.164q.667,2.944,4.209,6.187l.805.736q1.311,1.173,1.99,1.806t1.576,1.587a19.235,19.235,0,0,1,1.472,1.737,61.771,61.771,0,0,1,5.75-3.956A.421.421,0,0,1-80.534-2.438Zm-5.577,8.165a4.648,4.648,0,0,0-.759-2.714,27.108,27.108,0,0,0-3.22,3.013,13.079,13.079,0,0,0-1.587,2.116,6.577,6.577,0,0,0-.69,1.449,3.449,3.449,0,0,0-.115.828.852.852,0,0,0,.437.782,1.25,1.25,0,0,0,.886.057,3.36,3.36,0,0,0,1.092-.494Q-86.273,8.188-86.112,5.727Zm15.9-11.742a.462.462,0,0,1,.333.173.449.449,0,0,1,.115.356.506.506,0,0,1-.184.334A20.076,20.076,0,0,0-72.45-1.978q-.828,1.2-1.2,1.656a2.051,2.051,0,0,1-.667.6.817.817,0,0,1-.368.092.734.734,0,0,1-.506-.184q-.575-.46-.483-2.208a20.827,20.827,0,0,1,.437-3.082.754.754,0,0,0-.092.115q-.759.874-2.162,2.806-.828,1.15-1.15,1.541-.851,1.035-1.587.621-.644-.368-.656-1.771a7.66,7.66,0,0,1,.494-2.76,5.3,5.3,0,0,1,1.139-1.863,2.055,2.055,0,0,1,1.461-.713,1.287,1.287,0,0,1,1.311.943.61.61,0,0,1,.035.253.421.421,0,0,1-.092.219.448.448,0,0,1-.218.149.415.415,0,0,1-.368.012.453.453,0,0,1-.253-.287q-.138-.322-.391-.322a1.5,1.5,0,0,0-.862.506,3.791,3.791,0,0,0-.84,1.426,7.819,7.819,0,0,0-.38,1.53A5.161,5.161,0,0,0-79.9-1.518a1.971,1.971,0,0,0,.138.621,1.461,1.461,0,0,0,.368-.345q.322-.391,1.127-1.518,1.426-1.978,2.208-2.875,1.012-1.127,1.61-.828.483.253.276,1.127a21.36,21.36,0,0,0-.426,2.3,11.917,11.917,0,0,0-.115,1.564,2.622,2.622,0,0,0,.1.782,19.971,19.971,0,0,0,1.357-1.84,21.51,21.51,0,0,1,2.691-3.381A.542.542,0,0,1-70.207-6.015Zm11.776-.069a.511.511,0,0,1,.322.2.451.451,0,0,1,.092.368.475.475,0,0,1-.2.322A42.2,42.2,0,0,0-63.365-.874a38.136,38.136,0,0,1-1.242,12.3,24.357,24.357,0,0,1-2.6,6.394q-1.449,2.277-2.944,2.323H-70.2a1.811,1.811,0,0,1-1.254-.517,3.281,3.281,0,0,1-.862-1.437,7.776,7.776,0,0,1-.391-2.472,15.559,15.559,0,0,1,.449-3.542,21.822,21.822,0,0,1,1.484-4.312,31.8,31.8,0,0,1,6.417-9.108q-.046-.782-.138-1.5A5.06,5.06,0,0,0-64.906-4.6a.066.066,0,0,1-.046.023,8.919,8.919,0,0,0-1.587,1.794A9.438,9.438,0,0,1-68.586-.552a1.389,1.389,0,0,1-1.886,0,2.948,2.948,0,0,1-.771-2.3,6.542,6.542,0,0,1,.794-3.059.452.452,0,0,1,.287-.242.443.443,0,0,1,.368.046.5.5,0,0,1,.23.287.477.477,0,0,1-.035.368,5.948,5.948,0,0,0-.587,1.76,4.528,4.528,0,0,0-.035,1.53,1.55,1.55,0,0,0,.391.874q.276.23.713-.069a9.206,9.206,0,0,0,1.794-2,8.961,8.961,0,0,1,1.84-2.024.946.946,0,0,1,.966-.138,1.121,1.121,0,0,1,.46.449,3.069,3.069,0,0,1,.311.851,11.983,11.983,0,0,1,.218,1.368q.046.345.069.713A47,47,0,0,1-58.788-6,.454.454,0,0,1-58.431-6.084ZM-65.55,11.178A37.082,37.082,0,0,0-64.285.092,30.877,30.877,0,0,0-69.9,8.257a21.435,21.435,0,0,0-1.391,4.082,15,15,0,0,0-.437,3.312,7.02,7.02,0,0,0,.334,2.243q.437,1.288,1.219,1.265.966-.023,2.243-1.99A22.236,22.236,0,0,0-65.55,11.178Zm20.5-17.262a.478.478,0,0,1,.333.161.452.452,0,0,1,.126.345.5.5,0,0,1-.149.333,13.509,13.509,0,0,0-1.84,2.369A14.343,14.343,0,0,1-48.9-.046a1.9,1.9,0,0,1-1.2.483,1.5,1.5,0,0,1-.713-.184,3.141,3.141,0,0,1-1.1-2.427,13.376,13.376,0,0,1,.368-4.382.462.462,0,0,1,.219-.31.478.478,0,0,1,.368-.058.514.514,0,0,1,.311.207.441.441,0,0,1,.069.368,13.981,13.981,0,0,0-.391,2.887,7.251,7.251,0,0,0,.173,1.99,1.529,1.529,0,0,0,.518.9q.276.161.759-.23A12.326,12.326,0,0,0-47.4-3.427a15.056,15.056,0,0,1,2-2.53A.488.488,0,0,1-45.045-6.084Zm-5.417-3a.552.552,0,0,1-.4-.173.578.578,0,0,1-.173-.425.583.583,0,0,1,.081-.3.63.63,0,0,1,.207-.219.524.524,0,0,1,.287-.08.617.617,0,0,1,.437.172.56.56,0,0,1,.184.425.56.56,0,0,1-.184.425A.617.617,0,0,1-50.462-9.085Zm23.437-9.177a.831.831,0,0,1,.253,1.012.341.341,0,0,1-.092.161.614.614,0,0,1-.161.115.408.408,0,0,1-.184.046.756.756,0,0,1-.184-.023.457.457,0,0,1-.264-.242.521.521,0,0,1-.034-.356q-.644-.437-3.841-.276a75.985,75.985,0,0,0-8.188.943q-1.84.3-3.634.667a55.8,55.8,0,0,0-.874,7.038A85.863,85.863,0,0,0-44.275,1.7a24.14,24.14,0,0,0,.69,5.474.428.428,0,0,1,.276.092.448.448,0,0,1,.219.311.454.454,0,0,1-.081.357.676.676,0,0,1-.575.345.408.408,0,0,1-.184-.046.832.832,0,0,1-.219-.1,1.384,1.384,0,0,1-.253-.414,4.284,4.284,0,0,1-.3-.943q-.126-.586-.276-1.76t-.242-2.806a86.549,86.549,0,0,1,.023-11.454,58.405,58.405,0,0,1,.8-6.762q-7.544,1.541-10.028,2.921a.373.373,0,0,1-.23.069.445.445,0,0,1-.414-.253.449.449,0,0,1-.058-.379.452.452,0,0,1,.242-.287q2.668-1.495,10.695-3.105,1.012-4.715,2.346-5.543a1.1,1.1,0,0,1,1.081-.115.45.45,0,0,1,.264.264.467.467,0,0,1,0,.379.5.5,0,0,1-.264.264.415.415,0,0,1-.368-.011.273.273,0,0,0-.207.046q-.943.6-1.817,4.508,1.541-.3,3.036-.552,1.679-.276,3.358-.494t3.841-.425a23.9,23.9,0,0,1,3.761-.1A3.821,3.821,0,0,1-27.025-18.262ZM-38.847.621a3.034,3.034,0,0,1-.414,1.7A5.809,5.809,0,0,1-40.48,3.887.488.488,0,0,1-40.8,4a.46.46,0,0,1-.368-.161A.432.432,0,0,1-41.3,3.5a.473.473,0,0,1,.173-.345,4.471,4.471,0,0,0,.978-1.231A2.205,2.205,0,0,0-39.813.713.786.786,0,0,0-40.2.092a.514.514,0,0,1-.207-.311.477.477,0,0,1,.057-.368.458.458,0,0,1,.3-.218.483.483,0,0,1,.38.069A1.649,1.649,0,0,1-38.847.621Zm19.642-6.7a.451.451,0,0,1,.368.092.474.474,0,0,1,.184.334.465.465,0,0,1-.115.368,3.57,3.57,0,0,1-2.289,1.437,4.772,4.772,0,0,1-2.932-.586A8.469,8.469,0,0,1-23.667-2,4.626,4.626,0,0,1-24.4.759a1.41,1.41,0,0,1-1.15.644,1.17,1.17,0,0,1-.23-.023q-1.334-.23-2.3-3.105-.184-.552-.3-.805-.161.184-.667.874-.253.391-.414.6-.966,1.311-1.84.782-.759-.46-.621-2.07a9.818,9.818,0,0,1,1.058-3.473.493.493,0,0,1,.288-.253.468.468,0,0,1,.38.023.452.452,0,0,1,.241.287.5.5,0,0,1-.035.379,10.454,10.454,0,0,0-.793,2.128,5.468,5.468,0,0,0-.207,1.507.971.971,0,0,0,.2.644,1.379,1.379,0,0,0,.529-.529q.161-.207.437-.575.437-.6.632-.851a1.866,1.866,0,0,1,.46-.425.7.7,0,0,1,.517-.127.78.78,0,0,1,.587.414,6.761,6.761,0,0,1,.494,1.173,10.552,10.552,0,0,0,.426,1.093,4.626,4.626,0,0,0,.391.713,3.205,3.205,0,0,0,.333.4.966.966,0,0,0,.241.2q.081.034.127.058.23.023.437-.276a2.868,2.868,0,0,0,.529-1.633,7.763,7.763,0,0,0-.138-2.07,7.951,7.951,0,0,0-.575-1.794.449.449,0,0,1,.127-.587.441.441,0,0,1,.587-.034q3.358,2.323,5.129.069A.475.475,0,0,1-19.2-6.084Zm7.142.092a.458.458,0,0,1,.287.23.471.471,0,0,1,.035.368.452.452,0,0,1-.241.287,9.172,9.172,0,0,0-.782.518,8.8,8.8,0,0,0-.828.7q-.437.414-.713.69t-.736.782q-.483.506-.736.759t-.667.644a4.378,4.378,0,0,1-.7.564,4.749,4.749,0,0,1-.656.322,1.839,1.839,0,0,1-.69.15h-.115a1.731,1.731,0,0,1-1.518-1.081,3.518,3.518,0,0,1-.322-1.38,7.18,7.18,0,0,1,.069-1.541,8.1,8.1,0,0,1,.3-1.265.066.066,0,0,0,.023-.046.306.306,0,0,1,.069-.184,3.1,3.1,0,0,1,.161-.322,6.964,6.964,0,0,1,.977-1.139,2.11,2.11,0,0,1,.84-.517,2.14,2.14,0,0,1,.6-.081A.847.847,0,0,1-17-7.406a1.016,1.016,0,0,1,.54.61,1.3,1.3,0,0,1-.011.886A1.62,1.62,0,0,1-17.5-4.842a3.934,3.934,0,0,1-1.748.2,7.143,7.143,0,0,0-.241,1.587,4.1,4.1,0,0,0,.241,1.587.8.8,0,0,0,.713.506,1.445,1.445,0,0,0,.851-.322,6.585,6.585,0,0,0,.874-.7q.368-.356,1.058-1.092.667-.713,1.047-1.092t1.035-.92a8.489,8.489,0,0,1,1.23-.863A.5.5,0,0,1-12.063-5.992Zm-5.371-.564a.441.441,0,0,0-.219.012,1.454,1.454,0,0,0-.46.276,3.992,3.992,0,0,0-.655.679h.046q1.127,0,1.334-.621Q-17.3-6.486-17.434-6.555Zm8.073-9.568a2.718,2.718,0,0,1-.184,1.173,4.638,4.638,0,0,1-.609,1.138,6.106,6.106,0,0,1-.84.932.441.441,0,0,1-.322.138.507.507,0,0,1-.368-.161.542.542,0,0,1-.1-.356.5.5,0,0,1,.149-.334,4.814,4.814,0,0,0,.977-1.253,2.205,2.205,0,0,0,.333-1.208.77.77,0,0,0-.368-.621.49.49,0,0,1-.23-.311.452.452,0,0,1,.069-.368.456.456,0,0,1,.31-.207.516.516,0,0,1,.357.058A1.71,1.71,0,0,1-9.361-16.123ZM-.034-4.083a.471.471,0,0,1,.368.035.458.458,0,0,1,.23.288.5.5,0,0,1-.035.38Q-2.576,2.277-4.807,2.277a1.623,1.623,0,0,1-.644-.138Q-7.59,1.311-7.8-4.646A38.4,38.4,0,0,1-6.716-15.3,14.177,14.177,0,0,1-4.37-20.838q1.449-1.794,2.783-1.518,1.1.23,1.656,1.817a9.686,9.686,0,0,1,.046,4.577A14.983,14.983,0,0,1-.759-12.7a10.578,10.578,0,0,1-1.3,2.427A11.45,11.45,0,0,1-3.381-8.763a4.822,4.822,0,0,1-1.15.828,1.192,1.192,0,0,1-1.081.069.514.514,0,0,1-.207-.311.475.475,0,0,1,.046-.357.428.428,0,0,1,.6-.207,1.3,1.3,0,0,0,.46-.219A6.382,6.382,0,0,0-4-9.522a6.759,6.759,0,0,0,.874-.977,12.652,12.652,0,0,0,.9-1.38,11.092,11.092,0,0,0,.817-1.886,14.929,14.929,0,0,0,.587-2.358,11.193,11.193,0,0,0,.046-3.783q-.3-1.346-1.012-1.484a1.083,1.083,0,0,0-.863.253A5.057,5.057,0,0,0-3.7-20.079a9.5,9.5,0,0,0-1.115,2.024,17.825,17.825,0,0,0-.955,2.99,37.231,37.231,0,0,0-1.058,10.4,18.156,18.156,0,0,0,.506,3.9Q-5.888.943-5.106,1.242a.868.868,0,0,0,.276.046,1.4,1.4,0,0,0,.391-.08A2.129,2.129,0,0,0-3.91.943,5.008,5.008,0,0,0-3.243.38a9.311,9.311,0,0,0,.817-.92q.426-.54.966-1.392T-.322-3.864A.467.467,0,0,1-.034-4.083Zm7.544,0a.471.471,0,0,1,.368.035.458.458,0,0,1,.23.288.5.5,0,0,1-.035.38Q4.968,2.277,2.737,2.277a1.623,1.623,0,0,1-.644-.138Q-.046,1.311-.253-4.646A38.4,38.4,0,0,1,.828-15.3a14.177,14.177,0,0,1,2.346-5.543q1.449-1.794,2.783-1.518,1.1.23,1.656,1.817a9.686,9.686,0,0,1,.046,4.577A14.983,14.983,0,0,1,6.785-12.7a10.578,10.578,0,0,1-1.3,2.427A11.45,11.45,0,0,1,4.163-8.763a4.822,4.822,0,0,1-1.15.828,1.192,1.192,0,0,1-1.081.069.514.514,0,0,1-.207-.311.475.475,0,0,1,.046-.357.428.428,0,0,1,.6-.207,1.3,1.3,0,0,0,.46-.219,6.382,6.382,0,0,0,.713-.564,6.759,6.759,0,0,0,.874-.977,12.652,12.652,0,0,0,.9-1.38,11.092,11.092,0,0,0,.817-1.886,14.929,14.929,0,0,0,.587-2.358,11.193,11.193,0,0,0,.046-3.783q-.3-1.346-1.012-1.484a1.083,1.083,0,0,0-.863.253,5.057,5.057,0,0,0-1.047,1.058,9.5,9.5,0,0,0-1.115,2.024,17.825,17.825,0,0,0-.954,2.99A37.231,37.231,0,0,0,.713-4.669a18.156,18.156,0,0,0,.506,3.9Q1.656.943,2.438,1.242a.868.868,0,0,0,.276.046,1.4,1.4,0,0,0,.391-.08A2.129,2.129,0,0,0,3.634.943,5.008,5.008,0,0,0,4.3.38a9.311,9.311,0,0,0,.817-.92q.426-.54.966-1.392T7.222-3.864A.467.467,0,0,1,7.51-4.083Zm16.939-6.842a19.724,19.724,0,0,1-1.173,3.783,28.193,28.193,0,0,1-2.07,4.106l-.322.506q0,3.266.184,6.233.115,1.978.322,3.439a20.471,20.471,0,0,0,.368,2.07,3.093,3.093,0,0,0,.3.816.448.448,0,0,1,.46.322.472.472,0,0,1-.011.368.452.452,0,0,1-.264.253.675.675,0,0,1-.253.046.811.811,0,0,1-.46-.138Q20.516,10.12,20.1,3.864q-.161-2.392-.184-5.037-2.3,2.944-3.979,2.047-1.15-.644-1.265-2.76a7.793,7.793,0,0,1,.782-3.8A5.531,5.531,0,0,1,16.71-7.418a1.6,1.6,0,0,1,1.438-.517q1.012.207,1.058,1.909a.508.508,0,0,1-.138.357.45.45,0,0,1-.345.149.51.51,0,0,1-.23-.057.442.442,0,0,1-.184-.172.444.444,0,0,1-.069-.23q-.023-.943-.276-1.012a.611.611,0,0,0-.391.15,3.44,3.44,0,0,0-.61.586,4.471,4.471,0,0,0-.632.989A7.254,7.254,0,0,0,15.652-2q.057,1.633.771,2.024.483.253,1.391-.414a10.1,10.1,0,0,0,2.1-2.438q0-2.553.138-4.761a39.061,39.061,0,0,1,1.162-7.843q.886-3.243,2.013-3.749a.877.877,0,0,1,.943.092,2.042,2.042,0,0,1,.644,1.288,9.485,9.485,0,0,1,.127,2.22q-.058,1.277-.184,2.381T24.449-10.925ZM21.022-7.544Q20.93-6.1,20.907-4.462a21.48,21.48,0,0,0,2.576-6.624,36.8,36.8,0,0,0,.46-3.91,12.721,12.721,0,0,0-.023-2.392,1.83,1.83,0,0,0-.3-.9,1,1,0,0,0-.311.3,5.637,5.637,0,0,0-.471.863,11.232,11.232,0,0,0-.575,1.552A35.224,35.224,0,0,0,21.022-7.544ZM31.867-5.992a.458.458,0,0,1,.287.23.471.471,0,0,1,.035.368.452.452,0,0,1-.241.287,9.172,9.172,0,0,0-.782.518,8.8,8.8,0,0,0-.828.7q-.437.414-.713.69t-.736.782q-.483.506-.736.759t-.667.644a4.378,4.378,0,0,1-.7.564,4.749,4.749,0,0,1-.656.322,1.839,1.839,0,0,1-.69.15h-.115a1.731,1.731,0,0,1-1.518-1.081,3.518,3.518,0,0,1-.322-1.38,7.18,7.18,0,0,1,.069-1.541,8.1,8.1,0,0,1,.3-1.265.066.066,0,0,0,.023-.046.306.306,0,0,1,.069-.184A3.1,3.1,0,0,1,24.1-5.8a6.964,6.964,0,0,1,.977-1.139,2.11,2.11,0,0,1,.84-.517,2.14,2.14,0,0,1,.6-.081.847.847,0,0,1,.414.126,1.016,1.016,0,0,1,.54.61,1.3,1.3,0,0,1-.011.886,1.62,1.62,0,0,1-1.035,1.069,3.934,3.934,0,0,1-1.748.2,7.143,7.143,0,0,0-.241,1.587,4.1,4.1,0,0,0,.241,1.587.8.8,0,0,0,.713.506,1.445,1.445,0,0,0,.851-.322,6.585,6.585,0,0,0,.874-.7q.368-.356,1.058-1.092.667-.713,1.047-1.092t1.035-.92a8.489,8.489,0,0,1,1.23-.863A.5.5,0,0,1,31.867-5.992ZM26.5-6.555a.441.441,0,0,0-.219.012,1.454,1.454,0,0,0-.46.276,3.992,3.992,0,0,0-.655.679h.046q1.127,0,1.334-.621Q26.634-6.486,26.5-6.555ZM39.135-4.083a.471.471,0,0,1,.368.035.458.458,0,0,1,.23.288.5.5,0,0,1-.035.38q-3.1,5.658-5.336,5.658a1.623,1.623,0,0,1-.644-.138q-2.139-.828-2.346-6.785A38.4,38.4,0,0,1,32.453-15.3,14.177,14.177,0,0,1,34.8-20.838q1.449-1.794,2.783-1.518,1.1.23,1.656,1.817a9.686,9.686,0,0,1,.046,4.577A14.983,14.983,0,0,1,38.41-12.7a10.578,10.578,0,0,1-1.3,2.427,11.45,11.45,0,0,1-1.323,1.507,4.822,4.822,0,0,1-1.15.828,1.192,1.192,0,0,1-1.081.069.514.514,0,0,1-.207-.311.475.475,0,0,1,.046-.357.428.428,0,0,1,.6-.207,1.3,1.3,0,0,0,.46-.219,6.382,6.382,0,0,0,.713-.564,6.759,6.759,0,0,0,.874-.977,12.652,12.652,0,0,0,.9-1.38,11.092,11.092,0,0,0,.816-1.886,14.929,14.929,0,0,0,.587-2.358,11.193,11.193,0,0,0,.046-3.783q-.3-1.346-1.012-1.484a1.083,1.083,0,0,0-.862.253,5.057,5.057,0,0,0-1.047,1.058,9.5,9.5,0,0,0-1.116,2.024,17.825,17.825,0,0,0-.954,2.99,37.231,37.231,0,0,0-1.058,10.4,18.157,18.157,0,0,0,.506,3.9q.437,1.713,1.219,2.012a.868.868,0,0,0,.276.046,1.4,1.4,0,0,0,.391-.08,2.129,2.129,0,0,0,.529-.265A5.008,5.008,0,0,0,35.926.38a9.311,9.311,0,0,0,.817-.92q.425-.54.966-1.392t1.139-1.932A.467.467,0,0,1,39.135-4.083Zm6.693-2a.478.478,0,0,1,.333.161.452.452,0,0,1,.126.345.5.5,0,0,1-.149.333A13.509,13.509,0,0,0,44.3-2.875,14.343,14.343,0,0,1,41.975-.046a1.9,1.9,0,0,1-1.2.483,1.5,1.5,0,0,1-.713-.184,3.141,3.141,0,0,1-1.1-2.427,13.376,13.376,0,0,1,.368-4.382.462.462,0,0,1,.219-.31.478.478,0,0,1,.368-.058.514.514,0,0,1,.311.207.441.441,0,0,1,.069.368,13.981,13.981,0,0,0-.391,2.887,7.251,7.251,0,0,0,.173,1.99,1.529,1.529,0,0,0,.518.9q.276.161.759-.23A12.326,12.326,0,0,0,43.47-3.427a15.056,15.056,0,0,1,2-2.53A.488.488,0,0,1,45.828-6.084Zm-5.417-3a.552.552,0,0,1-.4-.173.578.578,0,0,1-.173-.425.583.583,0,0,1,.081-.3.63.63,0,0,1,.207-.219.524.524,0,0,1,.287-.08.617.617,0,0,1,.437.172.56.56,0,0,1,.184.425.56.56,0,0,1-.184.425A.617.617,0,0,1,40.411-9.085Zm16.686,3a.433.433,0,0,1,.357.092.474.474,0,0,1,.184.334.514.514,0,0,1-.092.368A3.548,3.548,0,0,1,55-3.818a5.485,5.485,0,0,1-3.3-.943q-.322,1.472-.678,2.657a15.837,15.837,0,0,1-.7,1.944,10.878,10.878,0,0,1-.679,1.288,3.3,3.3,0,0,1-.656.794,2.718,2.718,0,0,1-.575.379,1.214,1.214,0,0,1-.506.115.256.256,0,0,1-.115-.023,1.413,1.413,0,0,1-1.035-.632,4.591,4.591,0,0,1-.69-1.415,13.1,13.1,0,0,1-.414-1.955q-.161-1.127-.207-2.058T45.4-5.612a.51.51,0,0,1,.057-.23.442.442,0,0,1,.173-.184.483.483,0,0,1,.253-.069.468.468,0,0,1,.345.138.468.468,0,0,1,.138.345q0,1.61.126,2.9a16.793,16.793,0,0,0,.3,2.036A7.034,7.034,0,0,0,47.185.564a2.585,2.585,0,0,0,.391.678.468.468,0,0,0,.311.184h.023a.724.724,0,0,0,.46-.23,3.272,3.272,0,0,0,.563-.77,11.063,11.063,0,0,0,.632-1.334,21.257,21.257,0,0,0,.679-2.024q.357-1.23.656-2.7A.441.441,0,0,1,51.187-6a.466.466,0,0,1,.448.046q3.381,2.323,5.129.069A.558.558,0,0,1,57.1-6.084Zm7.314.092a.458.458,0,0,1,.288.23.471.471,0,0,1,.035.368.452.452,0,0,1-.242.287,9.17,9.17,0,0,0-.782.518,8.8,8.8,0,0,0-.828.7q-.437.414-.713.69t-.736.782q-.483.506-.736.759t-.667.644a4.378,4.378,0,0,1-.7.564,4.749,4.749,0,0,1-.656.322,1.839,1.839,0,0,1-.69.15h-.115A1.731,1.731,0,0,1,56.35-1.058a3.518,3.518,0,0,1-.322-1.38A7.18,7.18,0,0,1,56.1-3.979a8.1,8.1,0,0,1,.3-1.265.066.066,0,0,0,.023-.046.306.306,0,0,1,.069-.184,3.1,3.1,0,0,1,.161-.322,6.963,6.963,0,0,1,.978-1.139,2.11,2.11,0,0,1,.84-.517,2.14,2.14,0,0,1,.6-.081.847.847,0,0,1,.414.126,1.016,1.016,0,0,1,.541.61,1.3,1.3,0,0,1-.011.886,1.62,1.62,0,0,1-1.035,1.069,3.934,3.934,0,0,1-1.748.2,7.143,7.143,0,0,0-.242,1.587,4.1,4.1,0,0,0,.242,1.587.8.8,0,0,0,.713.506,1.445,1.445,0,0,0,.851-.322,6.585,6.585,0,0,0,.874-.7q.368-.356,1.058-1.092.667-.713,1.047-1.092t1.035-.92a8.489,8.489,0,0,1,1.231-.863A.5.5,0,0,1,64.411-5.992Zm-5.37-.564a.441.441,0,0,0-.218.012,1.454,1.454,0,0,0-.46.276,3.992,3.992,0,0,0-.656.679h.046q1.127,0,1.334-.621Q59.179-6.486,59.041-6.555Zm11.465.472a.456.456,0,0,1,.311.207.489.489,0,0,1,.08.368.468.468,0,0,1-.2.311,14.647,14.647,0,0,0-1.679,2.6q-.759,1.311-1.207,2.036A12.846,12.846,0,0,1,66.872.771a2.819,2.819,0,0,1-.886.794A1.011,1.011,0,0,1,65.5,1.7a.731.731,0,0,1-.46-.161A1.03,1.03,0,0,1,64.7.771a4.8,4.8,0,0,1,.046-1.139q.092-.6.322-1.748a9.516,9.516,0,0,0,.3-1.909q-.115-.69-1.426-.805a1.78,1.78,0,0,1-1.4-.759,2.458,2.458,0,0,1-.38-1.357,3.025,3.025,0,0,1,.15-1.173,1.718,1.718,0,0,1,.644-.932,1.109,1.109,0,0,1,.851-.172,1.374,1.374,0,0,1,.92.679A1.963,1.963,0,0,1,65-7.291a2.865,2.865,0,0,1-.6,1.541q1.7.276,1.932,1.541a7.951,7.951,0,0,1-.3,2.277A12.39,12.39,0,0,0,65.642.644a16.778,16.778,0,0,0,2.53-3.749l.862-1.449a10.436,10.436,0,0,1,.587-.885A2.559,2.559,0,0,1,70.15-6,.454.454,0,0,1,70.506-6.084ZM64.032-7.36a1.13,1.13,0,0,0-.115-.621.558.558,0,0,0-.3-.3h-.023q-.207,0-.345.46a2.2,2.2,0,0,0-.115.874,1.676,1.676,0,0,0,.207.805.268.268,0,0,1,.046.069,1.471,1.471,0,0,0,.219-.219,1.414,1.414,0,0,0,.184-.3q.081-.173.15-.368A1.8,1.8,0,0,0,64.032-7.36ZM83.708-6.084a.478.478,0,0,1,.333.161.452.452,0,0,1,.127.345.5.5,0,0,1-.15.333,13.509,13.509,0,0,0-1.84,2.369A14.343,14.343,0,0,1,79.856-.046a1.9,1.9,0,0,1-1.2.483,1.5,1.5,0,0,1-.713-.184,3.141,3.141,0,0,1-1.1-2.427,13.376,13.376,0,0,1,.368-4.382.462.462,0,0,1,.218-.31.478.478,0,0,1,.368-.058.514.514,0,0,1,.311.207.441.441,0,0,1,.069.368,13.98,13.98,0,0,0-.391,2.887,7.251,7.251,0,0,0,.173,1.99,1.529,1.529,0,0,0,.517.9q.276.161.759-.23a12.327,12.327,0,0,0,2.116-2.622,15.056,15.056,0,0,1,2-2.53A.488.488,0,0,1,83.708-6.084Zm-5.417-3a.552.552,0,0,1-.4-.173.578.578,0,0,1-.173-.425.583.583,0,0,1,.08-.3A.63.63,0,0,1,78-10.2a.524.524,0,0,1,.287-.08.617.617,0,0,1,.437.172.56.56,0,0,1,.184.425.56.56,0,0,1-.184.425A.617.617,0,0,1,78.292-9.085Zm23.437-9.177a.831.831,0,0,1,.253,1.012.341.341,0,0,1-.092.161.614.614,0,0,1-.161.115.408.408,0,0,1-.184.046.756.756,0,0,1-.184-.023.457.457,0,0,1-.265-.242.521.521,0,0,1-.035-.356q-.644-.437-3.841-.276a75.985,75.985,0,0,0-8.188.943q-1.84.3-3.634.667a55.8,55.8,0,0,0-.874,7.038A85.863,85.863,0,0,0,84.479,1.7a24.14,24.14,0,0,0,.69,5.474.428.428,0,0,1,.276.092.448.448,0,0,1,.218.311.454.454,0,0,1-.08.357.676.676,0,0,1-.575.345.408.408,0,0,1-.184-.046.831.831,0,0,1-.218-.1,1.384,1.384,0,0,1-.253-.414,4.284,4.284,0,0,1-.3-.943q-.127-.586-.276-1.76t-.242-2.806a86.55,86.55,0,0,1,.023-11.454,58.4,58.4,0,0,1,.805-6.762q-7.544,1.541-10.028,2.921a.373.373,0,0,1-.23.069.445.445,0,0,1-.414-.253.449.449,0,0,1-.057-.379.452.452,0,0,1,.242-.287q2.668-1.495,10.695-3.105,1.012-4.715,2.346-5.543A1.1,1.1,0,0,1,88-22.7a.45.45,0,0,1,.265.264.467.467,0,0,1,0,.379.5.5,0,0,1-.265.264.415.415,0,0,1-.368-.011.273.273,0,0,0-.207.046q-.943.6-1.817,4.508,1.541-.3,3.036-.552Q90.321-18.078,92-18.3t3.841-.425a23.9,23.9,0,0,1,3.76-.1A3.821,3.821,0,0,1,101.729-18.262ZM88.734.115q.046-2.507-.023-6.647-.092-6.486.184-11.385a.414.414,0,0,1,.161-.322.488.488,0,0,1,.356-.127.478.478,0,0,1,.334.161.432.432,0,0,1,.115.357q-.253,4.853-.161,11.293.046,4.14,0,6.693a.468.468,0,0,1-.138.345.468.468,0,0,1-.345.138.45.45,0,0,1-.345-.149A.508.508,0,0,1,88.734.115Zm.207,2.346a.7.7,0,0,1,.943.322.554.554,0,0,1-.092.8.97.97,0,0,1-.713.184.623.623,0,0,1-.529-.322.682.682,0,0,1-.012-.586A.654.654,0,0,1,88.941,2.461Z" transform="translate(200 407.317)"/><g transform="translate(162.771 422.869)"><g transform="translate(0 0)"><path class="a" d="M.6,2.735A.125.125,0,0,1,.5,2.7C.147,2.5-.374,1.956.41,1.254a.472.472,0,0,1,.125-.069l2.5-.11L6.495.927C7.969.871,9.442.8,10.917.756L15.34.6,19.758.465Q28.6.211,37.458.1q17.7-.229,35.4.1c1.475.025,2.95.059,4.425.092L79.5.346h.034A14.967,14.967,0,0,1,79.7,1.875l-.067.016-.136.03-.272.062-.543.125-1.087.25-1.088.25c-.362.08-.729.142-1.093.214l-2.188.418c-.182.036-.365.067-.548.095l-.55.089-1.1.176c-.733.115-1.465.242-2.2.332-5.87.823-11.77,1.3-17.646,1.773h0q-2.066.165-4.129.342c-1.374.112-2.748.25-4.121.375-.687.061-1.374.139-2.056.211l-2.054.22-2.048.257c-.682.086-1.365.166-2.044.274-1.359.2-2.721.391-4.069.647-.676.125-1.353.236-2.027.363l-2.012.426-1.007.212-.125.026-.062.014c0,.33-.046-2.858-.02-1.507h.047l.25.047.5.095c.671.116,1.343.23,2.017.321,1.349.191,2.706.328,4.065.412.681.045,1.361.07,2.042.09.341,0,.681.014,1.022.014h1.039c.683,0,1.394-.045,2.1-.072l1.053-.046.526-.024h.157c.016,0,.02,0,.009.009l-.032.036-.132.149L38.888,9.92l-.144.161c-.047.054-.11.109-.164.164l-.333.326c-.115.109-.25.215-.375.322s-.25.216-.391.32l-.327.232c-.076.055-.156.1-.235.155-.156.1-.32.2-.482.291a9.44,9.44,0,0,1-1.01.5,9.655,9.655,0,0,1-1.062.375l-.272.072-.125.034h-.025l-.05.011h0l.011.054a2.518,2.518,0,0,0,.065.25c.021.08.042.17.071.25l.085.25s.011.051.04.145.074.231.136.407h0a8.007,8.007,0,0,0,.475,1.068,8.458,8.458,0,0,0,1.133,1.624l.165.177c.052.057.107.106.157.156.1.1.189.194.275.269s.157.15.221.216.125.115.17.165c.186.2.215.3.115.332a.546.546,0,0,1-.24-.007,1.991,1.991,0,0,1-.4-.114,3.84,3.84,0,0,1-.5-.23c-.09-.05-.185-.1-.279-.157l-.284-.189c.016.019-.03-.009-.125-.072s-.22-.174-.382-.307a8.529,8.529,0,0,1-1.075-1.153,8.712,8.712,0,0,1-.749-1.169h0c-.064-.125-.115-.235-.165-.336s-.092-.191-.125-.269l-.1-.249-.049-.147-.041-.149-.082-.3c-.015-.05-.022-.1-.034-.152l-.051-.25-.03-.141-.019-.136-.037-.272-.02-.137-.009-.069-.05-.355-.034-.242c0-.009-.009-.025,0-.025h.031l.062-.011.125-.021.493-.084.451-.086.222-.042.056-.011h.04l.055-.015.217-.057c.146-.04.288-.089.432-.134a3.779,3.779,0,0,0,.423-.161,8.076,8.076,0,0,0,1.594-.873l.04-.027H34.763c-1.34-.022-2.681-.089-4.016-.21s-2.668-.288-4-.5c-.331-.057-.662-.111-.992-.174l-.5-.092-.125-.024H25.1c.016,1.358-.041-1.852-.027-1.522h.016l.06-.012.25-.051L27.357,7.1l.978-.207c.327-.066.656-.119.983-.179l1.967-.348.491-.087c.164-.029.328-.05.493-.075l.987-.147,1.973-.293C40.5,5.044,45.784,4.6,51.057,4.175h0C56.936,3.7,62.8,3.226,68.611,2.412c.728-.09,1.45-.215,2.173-.33l1.085-.174.542-.086c.181-.027.362-.059.541-.095l2.157-.412c.358-.07.719-.131,1.077-.21L77.254.862,78.323.62l.535-.125.267-.061L79.259.4l.067-.015c-.125-1.374.222,1.86.167,1.526h-.035l-2.209-.05c-1.472-.034-2.946-.069-4.419-.092q-17.675-.337-35.355-.1-8.839.114-17.675.366l-4.415.119-4.417.154c-1.472.05-2.944.115-4.416.172L3.1,2.628Z" transform="translate(-0.001 -0.006)"/></g></g></g></svg>